<?xml version="1.0" encoding="UTF-8"?>
<svg id="Layer_1" xmlns="http://www.w3.org/2000/svg" version="1.1" viewBox="0 0 231.37 56.38">
  <!-- Generator: Adobe Illustrator 30.1.0, SVG Export Plug-In . SVG Version: 2.1.1 Build 136)  -->
  <defs>
    <style>
      .st0 {
        fill: #f27f9e;
      }
    </style>
  </defs>
  <path class="st0" d="M28.03,42.75v7.31c0,1.31-1.07,2.38-2.38,2.38H7.13c-1.31,0-2.38-1.07-2.38-2.38V7.08c0-1.31,1.07-2.38,2.38-2.38h18.46c1.31,0,2.38,1.07,2.38,2.38v7.28c0,1.31-1.07,2.38-2.38,2.38h-8.16l.02,5.97,6.75-.02c1.31,0,2.38,1.07,2.38,2.38v7.04c0,1.31-1.07,2.38-2.38,2.38h-6.77l.02,5.87,8.21-.02c1.31,0,2.38,1.07,2.38,2.38ZM66.21,4.69h-8.5c-1.09,0-2.04.73-2.31,1.79,0,0-6.05,23.35-6.07,23.41-.31-1.35-.67-2.77-1.07-4.28l-5.36-19.18c-.29-1.03-1.23-1.74-2.3-1.74h-8.24c-.76,0-1.46.35-1.92.97-.45.61-.59,1.38-.36,2.11l13.14,42.98c.31,1.01,1.22,1.69,2.28,1.69h7.79c1.06,0,1.98-.68,2.28-1.7l12.91-42.98c.22-.73.08-1.5-.37-2.11-.45-.61-1.15-.96-1.91-.96ZM93.05,40.37l-8.21.02-.02-5.87h6.77c1.31,0,2.38-1.07,2.38-2.38v-7.04c0-1.31-1.07-2.38-2.38-2.38l-6.75.02-.02-5.97h8.16c1.31,0,2.38-1.07,2.38-2.38v-7.28c0-1.31-1.07-2.38-2.38-2.38h-18.46c-1.31,0-2.38,1.07-2.38,2.38v42.99c0,1.31,1.07,2.38,2.38,2.38h18.52c1.31,0,2.38-1.07,2.38-2.38v-7.31c0-1.31-1.07-2.38-2.38-2.38ZM134.56,4.69h-7.92c-1.31,0-2.38,1.07-2.38,2.38v19.15l-10.1-20.21c-.41-.81-1.22-1.32-2.13-1.32h-8.48c-1.31,0-2.38,1.07-2.38,2.38v42.99c0,1.31,1.07,2.38,2.38,2.38h7.93c1.31,0,2.38-1.07,2.38-2.38l-.03-18.98,9.97,20.04c.41.82,1.22,1.32,2.13,1.32h8.65c1.31,0,2.38-1.07,2.38-2.38V7.08c0-1.31-1.07-2.38-2.38-2.38ZM165.48,4.69h-22.19c-1.31,0-2.38,1.07-2.38,2.38v7.99c0,1.31,1.07,2.38,2.38,2.38l4.65-.02v32.62c0,1.31,1.07,2.38,2.38,2.38h8.06c1.31,0,2.38-1.07,2.38-2.38l-.02-32.61h4.73c1.31,0,2.38-1.07,2.38-2.38v-7.99c0-1.31-1.07-2.38-2.38-2.38ZM190.31,39.55l-5.77.02V7.08c0-1.31-1.07-2.38-2.38-2.38h-7.93c-1.31,0-2.38,1.07-2.38,2.38v42.99c0,1.31,1.07,2.38,2.38,2.38h16.08c1.31,0,2.38-1.07,2.38-2.38v-8.13c0-1.31-1.07-2.38-2.38-2.38ZM226.34,5.82c-.44-.7-1.2-1.12-2.02-1.12h-9.11c-.98,0-1.87.61-2.22,1.53-1.71,4.4-3.11,8.15-4.17,11.21-1.07-3.02-2.48-6.78-4.21-11.21-.36-.91-1.25-1.52-2.22-1.52h-8.85c-.83,0-1.58.42-2.02,1.12-.44.7-.49,1.56-.13,2.3l11.05,22.88v19.06c0,1.31,1.07,2.38,2.38,2.38h8.06c1.31,0,2.38-1.07,2.38-2.38v-19.05s11.2-22.88,11.2-22.88c.37-.74.32-1.61-.12-2.31Z"/>
</svg>