<?xml version="1.0" encoding="UTF-8"?>
<svg id="Layer_1" xmlns="http://www.w3.org/2000/svg" version="1.1" xmlns:xlink="http://www.w3.org/1999/xlink" viewBox="0 0 231.37 56.38">
  <!-- Generator: Adobe Illustrator 30.1.0, SVG Export Plug-In . SVG Version: 2.1.1 Build 136)  -->
  <defs>
    <style>
      .st0 {
        fill: none;
      }

      .st1 {
        fill: #a57eb9;
      }

      .st2 {
        fill: #f27f9e;
      }

      .st3 {
        fill: #92d7ed;
      }

      .st4 {
        fill: #fdda67;
      }

      .st5 {
        clip-path: url(#clippath);
      }
    </style>
    <clipPath id="clippath">
      <path class="st0" d="M27.99,42.37v7.31c0,1.31-1.07,2.38-2.38,2.38H7.09c-1.31,0-2.38-1.07-2.38-2.38V6.7c0-1.31,1.07-2.38,2.38-2.38h18.46c1.31,0,2.38,1.07,2.38,2.38v7.28c0,1.31-1.07,2.38-2.38,2.38h-8.16l.02,5.97,6.75-.02c1.31,0,2.38,1.07,2.38,2.38v7.04c0,1.31-1.07,2.38-2.38,2.38h-6.77l.02,5.87,8.21-.02c1.31,0,2.38,1.07,2.38,2.38ZM66.17,4.31h-8.5c-1.09,0-2.04.73-2.31,1.79,0,0-6.05,23.35-6.07,23.41-.31-1.35-.67-2.77-1.07-4.28l-5.36-19.18c-.29-1.03-1.23-1.74-2.3-1.74h-8.24c-.76,0-1.46.35-1.92.97-.45.61-.59,1.38-.36,2.11l13.14,42.98c.31,1.01,1.22,1.69,2.28,1.69h7.79c1.06,0,1.98-.68,2.28-1.7l12.91-42.98c.22-.73.08-1.5-.37-2.11-.45-.61-1.15-.96-1.91-.96ZM93.01,39.98l-8.21.02-.02-5.87h6.77c1.31,0,2.38-1.07,2.38-2.38v-7.04c0-1.31-1.07-2.38-2.38-2.38l-6.75.02-.02-5.97h8.16c1.31,0,2.38-1.07,2.38-2.38v-7.28c0-1.31-1.07-2.38-2.38-2.38h-18.46c-1.31,0-2.38,1.07-2.38,2.38v42.99c0,1.31,1.07,2.38,2.38,2.38h18.52c1.31,0,2.38-1.07,2.38-2.38v-7.31c0-1.31-1.07-2.38-2.38-2.38ZM134.52,4.31h-7.92c-1.31,0-2.38,1.07-2.38,2.38v19.15l-10.1-20.21c-.41-.81-1.22-1.32-2.13-1.32h-8.48c-1.31,0-2.38,1.07-2.38,2.38v42.99c0,1.31,1.07,2.38,2.38,2.38h7.93c1.31,0,2.38-1.07,2.38-2.38l-.03-18.98,9.97,20.04c.41.82,1.22,1.32,2.13,1.32h8.65c1.31,0,2.38-1.07,2.38-2.38V6.7c0-1.31-1.07-2.38-2.38-2.38ZM165.44,4.31h-22.19c-1.31,0-2.38,1.07-2.38,2.38v7.99c0,1.31,1.07,2.38,2.38,2.38l4.65-.02v32.62c0,1.31,1.07,2.38,2.38,2.38h8.06c1.31,0,2.38-1.07,2.38-2.38l-.02-32.61h4.73c1.31,0,2.38-1.07,2.38-2.38v-7.99c0-1.31-1.07-2.38-2.38-2.38ZM190.27,39.17l-5.77.02V6.7c0-1.31-1.07-2.38-2.38-2.38h-7.93c-1.31,0-2.38,1.07-2.38,2.38v42.99c0,1.31,1.07,2.38,2.38,2.38h16.08c1.31,0,2.38-1.07,2.38-2.38v-8.13c0-1.31-1.07-2.38-2.38-2.38ZM226.3,5.44c-.44-.7-1.2-1.12-2.02-1.12h-9.11c-.98,0-1.87.61-2.22,1.53-1.71,4.4-3.11,8.15-4.17,11.21-1.07-3.02-2.48-6.78-4.21-11.21-.36-.91-1.25-1.52-2.22-1.52h-8.85c-.83,0-1.58.42-2.02,1.12-.44.7-.49,1.56-.13,2.3l11.05,22.88v19.06c0,1.31,1.07,2.38,2.38,2.38h8.06c1.31,0,2.38-1.07,2.38-2.38v-19.05s11.2-22.88,11.2-22.88c.37-.74.32-1.61-.12-2.31Z"/>
    </clipPath>
  </defs>
  <g class="st5">
    <g>
      <rect class="st0" x="121.21" y="11.61" width="38.69" height="0" transform="translate(58.29 126.16) rotate(-59.04)"/>
      <polygon class="st0" points="90.79 28.2 50.98 28.2 11.17 28.2 -28.65 28.2 -68.46 28.2 -108.27 28.2 -108.27 28.2 -88.36 61.37 -88.36 61.37 -108.26 28.2 -68.45 28.2 -68.45 28.2 -28.64 28.2 -8.73 61.37 -8.73 61.37 -28.63 28.2 11.17 28.2 11.18 28.2 50.98 28.2 31.08 61.37 31.08 61.37 31.08 61.37 50.99 28.2 50.99 28.2 90.8 28.2 90.8 28.2 90.79 28.2"/>
      <rect class="st0" x="21.12" y="-7.74" width="0" height="38.69"/>
      <polygon class="st0" points="90.79 28.2 90.8 28.19 70.89 -4.98 110.7 -4.98 110.7 -4.98 70.89 -4.98 70.89 -4.98 90.79 28.2"/>
      <polygon class="st3" points="230.14 -4.98 190.33 -4.98 210.23 28.19 230.14 -4.98"/>
      <polygon class="st4" points="150.52 -4.98 150.51 -4.98 170.42 28.19 190.32 -4.98 150.52 -4.98 150.52 -4.98"/>
      <polygon class="st1" points="150.51 -4.98 130.61 28.2 170.42 28.2 170.42 28.19 150.51 -4.98 150.51 -4.98"/>
      <polygon class="st2" points="190.33 -4.98 190.33 -4.98 170.42 28.2 210.23 28.2 210.23 28.19 190.33 -4.98"/>
      <polygon class="st1" points="210.23 28.19 210.23 28.2 210.24 28.2 250.04 28.2 230.14 -4.98 210.23 28.19"/>
      <path class="st3" d="M250.04,28.2V-4.98h-19.91l19.91,33.18Z"/>
      <polygon class="st4" points="110.71 -4.98 110.7 -4.98 130.61 28.19 150.51 -4.98 110.71 -4.98 110.71 -4.98 110.7 -4.98 110.7 -4.98 110.7 -4.98 110.71 -4.98"/>
      <polygon class="st2" points="70.89 -4.98 90.8 28.19 110.7 -4.98 110.7 -4.98 70.89 -4.98"/>
      <polygon class="st2" points="90.8 28.2 90.8 28.2 90.8 28.2 90.8 28.2"/>
      <polygon class="st3" points="50.98 28.2 70.89 -4.98 31.08 -4.98 31.08 -4.98 11.17 -38.15 -8.73 -4.98 31.07 -4.98 31.07 -4.98 50.98 28.2"/>
      <polygon class="st4" points="11.17 28.2 50.98 28.2 31.07 -4.98 11.17 28.2"/>
      <polygon class="st4" points="50.98 28.2 90.79 28.2 70.89 -4.98 50.98 28.2"/>
      <polygon class="st1" points="110.7 -4.98 110.7 -4.98 110.7 -4.98 110.7 -4.98 90.8 28.19 90.79 28.2 90.8 28.2 90.8 28.2 130.61 28.2 130.61 28.19 110.7 -4.98"/>
      <polygon class="st2" points="11.17 28.19 31.07 -4.98 -8.73 -4.98 -8.74 -4.98 -8.74 -4.98 11.17 28.19"/>
      <polygon class="st1" points="11.17 28.2 11.17 28.19 -8.74 -4.98 -28.65 28.2 11.17 28.2"/>
      <path class="st2" d="M250.06,61.37V28.2l-19.91,33.18h19.91Z"/>
      <polygon class="st1" points="-8.74 61.37 -8.74 61.37 11.17 94.55 31.07 61.37 -8.73 61.37 -8.73 61.37 -28.64 28.2 -48.55 61.37 -8.74 61.37"/>
      <polygon class="st4" points="11.17 28.2 -8.73 61.37 31.07 61.37 31.07 61.37 31.07 61.37 50.98 94.55 70.89 61.37 31.08 61.37 31.08 61.37 31.08 61.37 31.08 61.37 11.17 28.2"/>
      <polygon class="st2" points="70.89 61.37 70.89 61.37 50.99 28.2 31.08 61.37 70.89 61.37 70.89 61.37"/>
      <polygon class="st1" points="50.99 28.2 70.89 61.37 90.8 28.2 50.99 28.2 50.99 28.2"/>
      <polygon class="st3" points="31.08 61.37 31.08 61.37 50.98 28.2 11.18 28.2 11.17 28.2 31.08 61.37"/>
      <polygon class="st2" points="11.17 28.2 11.18 28.2 11.17 28.2 -28.63 28.2 -8.73 61.37 -8.73 61.37 11.17 28.2"/>
      <polygon class="st4" points="70.9 61.37 110.7 61.37 130.61 94.55 150.51 61.37 110.71 61.37 90.8 28.2 70.89 61.37 70.9 61.37"/>
      <polygon class="st1" points="150.51 61.37 170.42 94.55 190.33 61.37 150.52 61.37 130.61 28.2 110.71 61.37 150.51 61.37"/>
      <polygon class="st2" points="190.33 61.37 190.33 61.37 170.42 28.2 150.52 61.37 190.33 61.37"/>
      <polygon class="st4" points="210.24 28.2 170.42 28.2 190.33 61.37 210.24 28.2"/>
      <polygon class="st3" points="170.42 28.2 130.61 28.2 150.52 61.37 170.42 28.2"/>
      <polygon class="st3" points="130.61 28.2 90.8 28.2 110.71 61.37 130.61 28.2"/>
      <polygon class="st3" points="230.14 61.37 230.14 61.37 210.24 28.2 190.33 61.37 230.14 61.37"/>
      <polygon class="st4" points="250.05 28.2 210.24 28.2 230.14 61.37 250.05 28.2"/>
    </g>
  </g>
</svg>